# xmcd
#
# Track frame offsets: 
#        180
#        24184
#        41949
#        55848
#        71010
#        82073
#        95738
#        107300
#        123502
#        136767
#        153217
#        168819
#        185041
#
# Disc length: 2679 seconds
#
# Revision: 4
# Processed by: cddbd v1.5.2PL0 Copyright (c) Steve Scherf et al.
# Submitted via: ExactAudioCopyFreeDBPlugin 1.0
#
DISCID=a70a750d
DTITLE=Holly Golightly - Up The Empire
DYEAR=1998
DGENRE=Country
TTITLE0=Won't Go Out
TTITLE1=I Can't Stand It
TTITLE2=Come The Day
TTITLE3=You Ain't No Big Thing
TTITLE4=If I Should Ever Leave
TTITLE5=The Ride
TTITLE6=Troubles On My Mind
TTITLE7=An Eye For An Empty Heart
TTITLE8=Big Boss Man
TTITLE9=Believe Me
TTITLE10=Look For Me Baby
TTITLE11=It's All Over Now
TTITLE12=Mellow Down Easy
EXTD=
EXTT0=
EXTT1=
EXTT2=
EXTT3=
EXTT4=
EXTT5=
EXTT6=
EXTT7=
EXTT8=
EXTT9=
EXTT10=
EXTT11=
EXTT12=
PLAYORDER=
